<svg width="23" height="31" viewBox="0 0 23 31" fill="none" xmlns="http://www.w3.org/2000/svg">
<path d="M21.1544 20.3479C19.7463 20.3479 18.3637 20.0511 17.0534 19.4675C16.4114 19.1724 15.6222 19.4431 15.2303 19.9856L12.6442 22.6168C9.64506 20.459 7.79764 17.9698 6.21855 13.9578L8.11335 10.563C8.60563 9.90038 8.7822 8.93244 8.57065 8.02424C8.13581 6.249 7.91491 4.38634 7.91491 2.48759C7.91497 1.11592 7.08704 0 6.06941 0H1.84557C0.827938 0 0 1.11592 0 2.48751C0 18.2095 9.48975 31 21.1544 31C22.1721 31 23 29.8841 23 28.5125V22.8354C22.9999 21.4639 22.172 20.3479 21.1544 20.3479Z" fill="#11325A"/>
</svg>
