<svg width="13" height="19" viewBox="0 0 13 19" fill="none" xmlns="http://www.w3.org/2000/svg">
<path d="M6.47272 4.75244C4.74534 4.75244 3.33984 6.41032 3.33984 8.44835C3.33984 10.4864 4.74516 12.1443 6.47272 12.1443C8.20028 12.1443 9.60559 10.4864 9.60559 8.44835C9.60559 6.41054 8.20009 4.75244 6.47272 4.75244ZM6.47272 10.8243C5.36222 10.8243 4.45872 9.7584 4.45872 8.44832C4.45872 7.13824 5.36222 6.07236 6.47272 6.07236C7.58322 6.07236 8.48672 7.13824 8.48672 8.44832C8.48672 9.7584 7.58322 10.8243 6.47272 10.8243Z" fill="#11325A"/>
<path d="M11.7833 3.28187C10.5618 1.19635 8.62598 0 6.47251 0C4.31904 0 2.38319 1.19635 1.16172 3.28187C-0.0537451 5.35685 -0.334401 7.98382 0.409474 10.3047C0.608443 10.9385 0.924724 11.5543 1.34729 12.1313L6.0466 18.6432C6.15288 18.7906 6.3086 18.8755 6.47251 18.8755C6.63642 18.8755 6.79213 18.7906 6.89842 18.6432L11.5964 12.1331C12.0209 11.5528 12.3367 10.9377 12.534 10.3089C13.2794 7.98383 12.9988 5.35685 11.7833 3.28187ZM11.4864 9.84671C11.3343 10.3318 11.0859 10.8114 10.7485 11.2727C10.7476 11.2738 10.7466 11.2749 10.7459 11.2762L6.47251 17.1976L2.19651 11.2725C1.85935 10.8116 1.61094 10.3321 1.45729 9.84233C0.842099 7.92289 1.07557 5.75087 2.08201 4.0325C3.0916 2.30864 4.69198 1.31996 6.47251 1.31996C8.25301 1.31996 9.8532 2.3086 10.8628 4.0325C11.8694 5.75087 12.1031 7.92288 11.4864 9.84671Z" fill="#11325A"/>
</svg>
